<svg xmlns="http://www.w3.org/2000/svg" viewBox="0 0 24 24" fill="none"><defs><mask id="dither-edge" maskUnits="userSpaceOnUse" maskContentUnits="userSpaceOnUse" x="0" y="0" width="24" height="24"><rect width="24" height="24" fill="white"/><g fill="black" shape-rendering="crispEdges"><rect x="2" y="13" width="1" height="1"/><rect x="3" y="14" width="1" height="1"/><rect x="4" y="15" width="1" height="1"/></g></mask></defs><g mask="url(#dither-edge)"><g stroke="#4770a0" stroke-width="2.5" stroke-linecap="round"><path d="m10 15-2 2a4 4 0 0 1-6-6l5-5a4 4 0 0 1 6 0m1 3 2-2a4 4 0 0 1 6 6l-5 5a4 4 0 0 1-6 0"/><path stroke="#9fc3e4" d="m8 13 7-7"/></g></g></svg>
