<svg xmlns="http://www.w3.org/2000/svg" viewBox="0 0 24 24" fill="none"><defs><mask id="dither-edge" maskUnits="userSpaceOnUse" maskContentUnits="userSpaceOnUse" x="0" y="0" width="24" height="24"><rect width="24" height="24" fill="white"/><g fill="black" shape-rendering="crispEdges"><rect x="8" y="14" width="1" height="1"/><rect x="9" y="13" width="1" height="1"/><rect x="10" y="14" width="1" height="1"/><rect x="12" y="14" width="1" height="1"/></g></mask></defs><g mask="url(#dither-edge)"><path fill="#a97925" d="M8 15c0-2-2-3-2-6a6 6 0 0 1 12 0c0 3-2 4-2 6H8Z"/><path fill="#ffd45c" d="M9 17h6v2H9zm1 3h4v2h-4z"/><path stroke="#a97925" stroke-width="1.5" stroke-linecap="round" d="M12 2V1M4.9 4.9 4.2 4.2M19.1 4.9l.7-.7"/></g></svg>
