<svg xmlns="http://www.w3.org/2000/svg" viewBox="0 0 112 112" fill="none">
<rect x="1" y="1" width="110" height="110" rx="28" fill="#292B29"/>
<rect x="8" y="8" width="96" height="96" rx="23" fill="#7B792C"/>
<rect x="16" y="16" width="80" height="80" rx="17" fill="#FAFAF8"/>
<g fill="#7B792C" style="color:#7B792C"><path d="M32 42v-5a8 8 0 0 1 8-8h30m10 7v6a8 8 0 0 1-8 8H42" fill="none" stroke="currentColor" stroke-width="6" stroke-linecap="round"/><path d="m66 20 13 9-13 9zM46 41l-13 9 13 9z"/></g>
<path d="M16 62h25l15 14 15-14h25M56 76v20" stroke="#7B792C" stroke-width="5"/>
</svg>
